# xmcd
#
# Track frame offsets: 
#        150
#        15652
#        38122
#        51957
#        69675
#        85707
#        102207
#        118275
#        139527
#        158042
#
# Disc length: 2326 seconds
#
# Revision: 14
# Processed by: cddbd v1.5.2PL0 Copyright (c) Steve Scherf et al.
# Submitted via: ExactAudioCopyFreeDBPlugin 1.0
#
DISCID=7f09140a
DTITLE=Melissa Etheridge - Skin
DYEAR=2001
DGENRE=Rock
TTITLE0=Lover Please
TTITLE1=The Prison
TTITLE2=Walking on Water
TTITLE3=Down to One
TTITLE4=Goodnight
TTITLE5=It's Only Me
TTITLE6=I Want to be In Love
TTITLE7=Please Forgive Me
TTITLE8=The Different
TTITLE9=Heal Me
EXTD=
EXTT0=
EXTT1=
EXTT2=
EXTT3=
EXTT4=
EXTT5=
EXTT6=
EXTT7=
EXTT8=
EXTT9=
PLAYORDER=
